<?xml version="1.0" standalone="no"?>
<!DOCTYPE svg PUBLIC "-//W3C//DTD SVG 1.1//EN" "http://www.w3.org/Graphics/SVG/1.1/DTD/svg11.dtd" >
<svg xmlns="http://www.w3.org/2000/svg">
<metadata></metadata>
<defs>
<font id="clanotnews" horiz-adv-x="1329" >
<font-face units-per-em="2048" ascent="1612" descent="-436" />
<missing-glyph horiz-adv-x="614" />
<glyph unicode="&#xfb01;" horiz-adv-x="1427" d="M68 1071v150h180v55q0 162 99.5 258t301.5 96q94 0 164 -18l-6 -135q-58 14 -119 14q-246 0 -246 -217v-53h762v-1221h-196v1071h-566v-1071h-192v1071h-182zM981 1534q0 104 127 104t127 -104q0 -107 -127 -107q-65 0 -96 25t-31 82z" />
<glyph unicode="&#xfb02;" horiz-adv-x="1366" d="M68 1071v150h180v57q0 360 508 360q89 0 217 -13t182 -15v-1610h-192v1485q-140 16 -209 16q-167 0 -239.5 -57.5t-72.5 -171.5v-51h256v-150h-256v-1071h-194v1071h-180z" />
<glyph horiz-adv-x="0" />
<glyph horiz-adv-x="0" />
<glyph horiz-adv-x="682" />
<glyph unicode="&#xd;" horiz-adv-x="614" />
<glyph unicode=" "  horiz-adv-x="614" />
<glyph unicode="&#x09;" horiz-adv-x="614" />
<glyph unicode="&#xa0;" horiz-adv-x="614" />
<glyph unicode="!" horiz-adv-x="620" d="M188 92q0 117 125 117t125 -117q0 -115 -125 -115q-64 0 -94.5 27t-30.5 88zM203 1536h211l-33 -1124h-148z" />
<glyph unicode="&#x22;" horiz-adv-x="790" d="M121 1577h196l-38 -494h-129zM489 1577h197l-39 -494h-129z" />
<glyph unicode="#" horiz-adv-x="1314" d="M113 444v156h243l58 344h-299v156h319l62 436h155l-63 -436h233l64 436h151l-63 -436h229v-156h-252l-53 -344h303v-156h-323l-66 -444h-149l63 444h-236l-63 -444h-154l64 444h-223zM510 600h235l56 344h-236z" />
<glyph unicode="$" horiz-adv-x="1228" d="M115 1143q0 198 136 305.5t390 112.5l14 133l123 -8l-14 -132q168 -15 278 -67l-14 -182q-136 51 -285 63l-51 -485q74 -26 126.5 -49t114 -62.5t99 -84.5t63 -113t25.5 -150q0 -230 -128.5 -340t-397.5 -113l-14 -141l-113 10l12 137q-223 19 -362 103q15 126 24 192 q166 -97 357 -118l57 553q-48 17 -81.5 30.5t-78 33t-75.5 39t-66 45t-57.5 54.5t-42.5 64.5t-29.5 78t-9.5 91.5zM295 1153q0 -36 15 -67t38.5 -53.5t62.5 -43.5t75 -35.5t89 -31.5l48 452q-164 -1 -246 -61t-82 -160zM612 147q176 1 261 64t85 188q-1 51 -23 92.5 t-64.5 73t-89.5 54.5t-113 47z" />
<glyph unicode="%" horiz-adv-x="1456" d="M98 1204q0 190 68.5 273.5t224.5 83.5q149 0 220 -82.5t71 -274.5q0 -185 -72 -271.5t-219 -86.5q-152 0 -222.5 86t-70.5 272zM231 1206q0 -130 37.5 -179.5t122.5 -49.5t121.5 48.5t36.5 180.5q0 130 -37.5 180t-120.5 50q-85 0 -122.5 -49t-37.5 -181zM256 119 l799 1384l114 -88l-796 -1384zM772 340q0 190 69 276t226 86q148 0 219.5 -85t71.5 -277q0 -185 -72.5 -271.5t-220.5 -86.5q-152 0 -222.5 86t-70.5 272zM907 340q0 -129 37.5 -178t120.5 -49q85 0 121.5 49t36.5 178q0 130 -36.5 179.5t-119.5 49.5q-86 0 -123 -48.5 t-37 -180.5z" />
<glyph unicode="&#x26;" horiz-adv-x="1421" d="M98 381q0 78 22.5 148t65.5 129.5t90 106t111 95.5q-135 211 -135 352q0 157 93 253t288 96q164 0 259 -76t95 -201q0 -53 -21.5 -106t-44.5 -88t-81.5 -88t-85 -73.5t-102.5 -77.5q-19 -15 -29 -22q140 -180 358 -372q98 157 131 329l166 2q-10 -91 -52.5 -209.5 t-111.5 -230.5q145 -114 285 -190l-70 -176q-149 80 -325 219q-211 -228 -484 -228q-110 0 -194 33.5t-132.5 91.5t-72 129t-23.5 154zM297 395q0 -111 69 -173t185 -62q169 0 319 153q-224 196 -387 410q-186 -161 -186 -328zM432 1212q0 -98 96 -249q67 47 103.5 74.5 t80.5 68.5t64 80.5t21 81.5q0 65 -45.5 102t-124.5 37q-86 0 -140.5 -52t-54.5 -143z" />
<glyph unicode="'" horiz-adv-x="423" d="M113 1577h196l-39 -494h-129z" />
<glyph unicode="(" horiz-adv-x="679" d="M193 680q0 560 323 950l158 -12q-297 -414 -297 -938q0 -520 295 -938l-156 -12q-154 176 -238.5 423t-84.5 527z" />
<glyph unicode=")" horiz-adv-x="677" d="M6 1618l158 12q321 -388 321 -950q0 -280 -84.5 -526.5t-236.5 -423.5l-156 12q293 420 293 938q0 522 -295 938z" />
<glyph unicode="*" horiz-adv-x="735" d="M51 1348l37 102l219 -59l15 229h98l10 -229l219 59l35 -102l-219 -76l137 -195l-76 -63l-155 186l-158 -186l-80 59l137 199z" />
<glyph unicode="+" horiz-adv-x="1222" d="M150 602v184h370v379h172v-379h381v-184h-381v-373h-172v373h-370z" />
<glyph unicode="," horiz-adv-x="512" d="M131 94q0 60 30 95.5t93 35.5q127 0 127 -135q0 -58 -48.5 -178t-101.5 -203l-69 19l53 252q-35 11 -59.5 43t-24.5 71z" />
<glyph unicode="-" horiz-adv-x="829" d="M143 625v145h543v-145h-543z" />
<glyph unicode="." horiz-adv-x="516" d="M131 104q0 125 127 125t127 -125q0 -127 -127 -127q-67 0 -97 29.5t-30 97.5z" />
<glyph unicode="/" horiz-adv-x="903" d="M23 -258l702 1884h168l-707 -1884h-163z" />
<glyph unicode="0" d="M117 766q0 293 57 465t175.5 247.5t316.5 75.5q147 0 248 -41t169 -134.5t98.5 -243t30.5 -369.5q0 -423 -128.5 -606t-417.5 -183q-293 0 -421 182.5t-128 606.5zM315 768q0 -185 20 -304t66 -185.5t108 -91.5t157 -25t156.5 25.5t106 92.5t64 185.5t19.5 302.5 q0 146 -13.5 250.5t-39 173t-69 107.5t-96.5 55t-128 16t-129 -16t-98 -55.5t-70 -108t-40 -172.5t-14 -250z" />
<glyph unicode="1" d="M293 1243l438 297h121v-1384h266v-156h-747v156h272v950l4 164l-4 4l-139 -90l-189 -119z" />
<glyph unicode="2" d="M176 0v141q55 53 145 136.5t144 134.5t128.5 125t120 124.5t96.5 115.5t79 116t46.5 108t18.5 109q0 114 -81 184t-246 70q-210 0 -396 -150l-55 170q95 77 219 122.5t264 45.5q243 0 373.5 -112t130.5 -310q0 -66 -18.5 -133.5t-48.5 -128t-83 -130t-106 -128 t-133.5 -134t-150 -136t-170.5 -145.5v-7h718l-6 -188h-989z" />
<glyph unicode="3" d="M164 104l43 168q185 -112 414 -112q184 0 276 83t92 224t-111.5 204.5t-377.5 63.5v154q245 0 350.5 65t105.5 193q0 111 -84 167t-239 56q-227 0 -408 -147l-53 163q88 74 210 120t261 46q238 0 370 -101.5t132 -289.5q0 -252 -252 -340v-4q295 -77 295 -358 q0 -223 -140.5 -350t-422.5 -127q-262 0 -461 122z" />
<glyph unicode="4" d="M125 467l668 1069h247v-1024h193l-6 -178h-187v-334h-188v334h-711zM352 518l2 -6h504l10 680l6 166l-4 2l-86 -143l-344 -566z" />
<glyph unicode="5" d="M186 104l39 172q95 -59 185.5 -87.5t205.5 -28.5q182 0 268.5 85.5t86.5 260.5q0 151 -83 220t-259 69q-97 0 -192 -21.5t-165 -56.5l-77 80l61 739h838l8 -188h-686l-35 -428q137 49 301 49q487 0 487 -445q0 -265 -133 -403.5t-403 -138.5q-262 0 -447 122z" />
<glyph unicode="6" d="M129 721q0 419 162.5 626t478.5 207q183 0 340 -61l-18 -180q-140 53 -297 53q-225 0 -340.5 -125.5t-130.5 -392.5l6 -4q79 64 179 99.5t206 35.5q243 0 360 -111.5t117 -339.5q0 -272 -131.5 -409t-386.5 -137q-136 0 -234.5 39t-169.5 125t-106 229t-35 346zM334 670 q4 -280 82.5 -395t257.5 -115q319 0 319 370q0 148 -75.5 217.5t-239.5 69.5q-91 0 -190 -41t-154 -106z" />
<glyph unicode="7" d="M137 1335l10 199h1061v-176l-649 -1358h-231l678 1335h-869z" />
<glyph unicode="8" d="M127 426q0 125 72.5 225t199.5 158v6q-213 106 -213 346q0 391 482 391q479 0 479 -391q0 -116 -57.5 -206.5t-165.5 -147.5v-4q63 -24 110.5 -54t87.5 -74t61 -107t21 -142q0 -222 -135.5 -333t-400.5 -111q-277 0 -409 110.5t-132 333.5zM322 424q0 -141 82 -207.5 t268 -66.5q159 0 246.5 64t87.5 198q0 34 -7 63.5t-23.5 54t-32.5 43.5t-46.5 37t-51.5 30t-61.5 27t-63.5 23t-70.5 23t-69.5 22q-121 -55 -189.5 -129t-68.5 -182zM375 1153q0 -30 7 -56.5t17 -47.5t30.5 -40.5t36.5 -33t47.5 -29t51 -24t59 -21.5t60 -18.5t64.5 -18.5 q114 55 166.5 121.5t52.5 159.5q0 121 -73.5 180t-227.5 59q-291 0 -291 -231z" />
<glyph unicode="9" d="M125 1071q0 229 129 356t385 127q265 0 408 -178.5t143 -531.5q0 -454 -150 -658t-462 -204q-200 0 -357 71l29 172q147 -63 309 -63q217 0 321.5 134.5t116.5 438.5l-4 2q-146 -123 -375 -123q-247 0 -370 121.5t-123 335.5zM319 1079q0 -144 82 -221.5t250 -77.5 q223 0 338 138q-3 240 -94 349t-258 109q-318 0 -318 -297z" />
<glyph unicode=":" horiz-adv-x="516" d="M131 104q0 125 127 125t127 -125q0 -127 -127 -127q-67 0 -97 29.5t-30 97.5zM131 1034q0 125 127 125t127 -125q0 -127 -127 -127q-67 0 -97 29.5t-30 97.5z" />
<glyph unicode=";" horiz-adv-x="524" d="M135 94q0 60 30 95.5t93 35.5q127 0 127 -135q0 -58 -48 -178t-101 -203l-70 19l53 252q-35 11 -59.5 43t-24.5 71zM139 1034q0 125 127 125t127 -125q0 -127 -127 -127q-67 0 -97 29.5t-30 97.5z" />
<glyph unicode="&#x3c;" horiz-adv-x="1222" d="M184 639v98l854 455v-201l-467 -231l-149 -68v-6l149 -70l467 -225v-192z" />
<glyph unicode="=" horiz-adv-x="1222" d="M156 418v160h909v-160h-909zM156 793v159h909v-159h-909z" />
<glyph unicode="&#x3e;" horiz-adv-x="1222" d="M184 199v192l463 225l152 70v6l-152 70l-463 229l2 201l852 -455v-98z" />
<glyph unicode="?" horiz-adv-x="1050" d="M70 1393q78 75 198.5 121.5t257.5 46.5q215 0 325 -95.5t110 -271.5q0 -166 -95 -288.5t-278 -221.5l-8 -272h-154l-12 348q88 53 146.5 95t107 91.5t71.5 103.5t23 115q0 106 -68 158.5t-192 52.5q-203 0 -361 -141zM381 92q0 117 125 117q123 0 123 -117 q0 -115 -123 -115q-65 0 -95 27t-30 88z" />
<glyph unicode="@" horiz-adv-x="1765" d="M104 698q0 147 33.5 282.5t102 251t166 201.5t233.5 134.5t295 48.5q221 0 387 -100.5t253 -278t87 -406.5q0 -151 -31 -266.5t-85.5 -185t-124 -104.5t-152.5 -35q-89 0 -150 41t-84 118l-6 2q-47 -76 -118.5 -118.5t-159.5 -42.5q-122 0 -195.5 89t-73.5 263 q0 150 56.5 281.5t157 212.5t220.5 81q129 0 183 -88h6l31 74l108 -8l-90 -535q-6 -38 -6 -71q0 -74 33.5 -118t105.5 -44q118 0 188 114.5t70 339.5q0 143 -40 263.5t-115.5 210t-192.5 140t-264 50.5q-138 0 -254 -41.5t-198.5 -115t-140.5 -174t-86 -218.5t-28 -248 q0 -171 43 -314t128 -252t222 -169.5t314 -60.5q381 0 596 202l47 -108q-249 -213 -641 -213q-263 0 -451.5 113.5t-283.5 318.5t-95 483zM643 592q0 -99 40 -151t110 -52q75 0 134 67.5t74 170.5l56 323q-39 74 -135 74q-76 0 -141 -62t-101.5 -161t-36.5 -209z" />
<glyph unicode="A" horiz-adv-x="1456" d="M37 0l565 1536h250l567 -1536h-235l-123 367h-676l-123 -367h-225zM446 549h555l-223 674l-47 159h-6l-51 -159z" />
<glyph unicode="B" horiz-adv-x="1404" d="M199 0v1536h563q227 0 342 -97t115 -286q0 -136 -59.5 -221t-160.5 -119v-4q281 -65 281 -373q0 -212 -118.5 -324t-375.5 -112h-587zM401 180h387q141 0 212 63t71 210q0 133 -71 196.5t-220 63.5h-379v-533zM401 877h369q126 0 187 59t61 180q0 126 -62.5 181 t-199.5 55h-355v-475z" />
<glyph unicode="C" horiz-adv-x="1241" d="M123 782q0 398 163 589.5t509 191.5q92 0 192.5 -21t165.5 -51l-27 -188q-136 63 -321 63q-166 0 -264.5 -54t-147.5 -182t-49 -348q0 -235 49.5 -370.5t149 -191.5t268.5 -56q174 0 322 74l26 -177q-77 -39 -177.5 -64.5t-197.5 -25.5q-341 0 -501 196t-160 615z" />
<glyph unicode="D" horiz-adv-x="1509" d="M199 0v1536h526q350 0 505.5 -179t155.5 -583q0 -278 -73 -449.5t-216 -248t-368 -76.5h-530zM408 195h317q94 0 162 15.5t123 54t88.5 104.5t51 166t17.5 239q0 166 -24.5 274.5t-80 173.5t-136.5 91t-203 26h-315v-1144z" />
<glyph unicode="E" horiz-adv-x="1275" d="M199 0v1536h944l6 -193h-741v-456h634v-176h-634v-521h776l-6 -190h-979z" />
<glyph unicode="F" horiz-adv-x="1216" d="M199 0v1536h944l4 -199h-737v-471h618l-2 -186h-616v-680h-211z" />
<glyph unicode="G" horiz-adv-x="1390" d="M123 764q0 417 167.5 608t530.5 191q105 0 215 -21t193 -55l-25 -189q-170 72 -373 72q-132 0 -221 -29t-150 -98.5t-88.5 -185.5t-27.5 -291q0 -227 47 -356.5t146.5 -185.5t271.5 -56q153 0 266 43v602h187v-754q-85 -40 -204 -64t-243 -24q-363 0 -527.5 190 t-164.5 603z" />
<glyph unicode="H" horiz-adv-x="1542" d="M199 0v1536h209v-643h725v643h210v-1536h-210v698h-725v-698h-209z" />
<glyph unicode="I" horiz-adv-x="661" d="M223 0v1536h215v-1536h-215z" />
<glyph unicode="J" horiz-adv-x="1126" d="M76 55l16 187q105 -78 266 -78q172 0 264.5 88.5t92.5 267.5v1016h213v-1018q0 -276 -140.5 -411.5t-402.5 -135.5q-184 0 -309 84z" />
<glyph unicode="K" horiz-adv-x="1439" d="M199 0v1536h209v-649h227l471 649h250l-531 -727l561 -809h-262l-493 709h-223v-709h-209z" />
<glyph unicode="L" horiz-adv-x="1173" d="M199 0v1536h211v-1339h714l-6 -197h-919z" />
<glyph unicode="M" horiz-adv-x="1873" d="M199 0v1536h237l441 -1085l59 -154h6l57 154l441 1085h235v-1536h-190v1016l4 166l-6 2l-60 -156l-415 -1028h-148l-414 1020l-59 156l-4 -2l2 -166v-1008h-186z" />
<glyph unicode="N" horiz-adv-x="1552" d="M199 0v1536h190l778 -1161l4 2l-4 164v995h187v-1536h-150l-725 1057l-90 139l-4 -2l2 -166v-1028h-188z" />
<glyph unicode="O" horiz-adv-x="1517" d="M123 768q0 422 147.5 607.5t489.5 185.5t488.5 -185t146.5 -608q0 -426 -146 -611.5t-489 -185.5q-340 0 -488.5 187.5t-148.5 609.5zM344 768q0 -177 22 -292t73.5 -184t127.5 -96.5t193 -27.5t193 27.5t127.5 96.5t73.5 184t22 292q0 236 -42 365.5t-129.5 181 t-244.5 51.5q-156 0 -243.5 -51.5t-130 -181t-42.5 -365.5z" />
<glyph unicode="P" horiz-adv-x="1335" d="M199 0v1536h510q282 0 409 -115t127 -366q0 -241 -128 -360.5t-408 -119.5h-301v-575h-209zM408 752h301q170 0 245.5 66t75.5 237q0 164 -75 231.5t-246 67.5h-301v-602z" />
<glyph unicode="Q" horiz-adv-x="1517" d="M123 768q0 422 147.5 607.5t489.5 185.5t488.5 -185t146.5 -608q0 -369 -108 -554t-353 -224v-6l135 -93l199 -141l-262 -65l-287 286q-318 10 -457 198t-139 599zM344 768q0 -177 22 -292t73.5 -184t127.5 -96.5t193 -27.5t193 27.5t127.5 96.5t73.5 184t22 292 q0 236 -42 365.5t-129.5 181t-244.5 51.5q-156 0 -243.5 -51.5t-130 -181t-42.5 -365.5z" />
<glyph unicode="R" horiz-adv-x="1355" d="M199 0v1536h520q252 0 372.5 -107.5t120.5 -330.5q0 -177 -77 -282t-224 -130l402 -686h-250l-346 647h-309v-647h-209zM408 813h303q150 0 217 63.5t67 213.5q0 143 -65 203.5t-211 60.5h-311v-541z" />
<glyph unicode="S" horiz-adv-x="1163" d="M104 88l33 191q192 -117 416 -117q160 0 242 68.5t82 193.5q0 55 -26 98.5t-70 72.5t-101 53t-120 46t-126 46t-120 58t-101 77t-70 108t-26 147q0 192 127.5 311.5t378.5 119.5q233 0 405 -82l-29 -183q-191 74 -366 74q-162 0 -238 -63.5t-76 -163.5q0 -53 26 -94.5 t70 -69t101 -50.5t120 -44.5t126 -45.5t120 -59t101 -79t70 -111.5t26 -151.5q0 -219 -136.5 -343t-387.5 -124t-451 117z" />
<glyph unicode="T" horiz-adv-x="1193" d="M33 1339l6 197h1116l4 -197h-457v-1339h-213v1339h-456z" />
<glyph unicode="U" horiz-adv-x="1507" d="M168 553v983h209v-981q0 -199 92.5 -292t284.5 -93t283 93t91 292v981h209v-983q0 -582 -583 -582q-586 0 -586 582z" />
<glyph unicode="V" horiz-adv-x="1419" d="M43 1536h233l388 -1178l49 -157h6l47 157l389 1178h221l-547 -1536h-239z" />
<glyph unicode="W" horiz-adv-x="2068" d="M98 1536h219l252 -1176l33 -161h6l35 161l279 1176h233l281 -1169l37 -162h6l30 162l252 1169h209l-371 -1536h-256l-272 1169l-33 164h-6l-35 -164l-270 -1169h-256z" />
<glyph unicode="X" horiz-adv-x="1427" d="M78 0l477 797l-463 739h254l369 -618l364 618h242l-457 -735l488 -801h-242l-397 676l-389 -676h-246z" />
<glyph unicode="Y" horiz-adv-x="1374" d="M43 1536h242l333 -674l72 -149h6l68 149l334 674h231l-532 -1016v-520h-213v520z" />
<glyph unicode="Z" horiz-adv-x="1263" d="M98 0v141l709 1061l92 133l-2 4h-776l8 197h1024v-160l-700 -1046l-93 -129l2 -6h795l-6 -195h-1053z" />
<glyph unicode="[" horiz-adv-x="667" d="M193 -262v1888h469v-145h-293v-1600h295v-143h-471z" />
<glyph unicode="\" horiz-adv-x="786" d="M16 1626h160l619 -1884h-158z" />
<glyph unicode="]" horiz-adv-x="669" d="M6 -121h295v1602h-295v145h469v-1888h-469v141z" />
<glyph unicode="^" d="M135 948l463 699h137l459 -699h-160l-368 549l-367 -549h-164z" />
<glyph unicode="_" horiz-adv-x="878" d="M55 -92h774v-127h-774v127z" />
<glyph unicode="`" horiz-adv-x="817" d="M211 1649h233l142 -293h-152z" />
<glyph unicode="a" horiz-adv-x="1173" d="M113 373q0 175 111.5 272.5t326.5 97.5q148 0 280 -47v121q0 143 -66 201.5t-218 58.5q-186 0 -342 -73l-19 161q177 80 394 80q239 0 340.5 -106.5t101.5 -350.5v-788h-148l-18 150l-6 2q-55 -79 -150.5 -124.5t-212.5 -45.5q-175 0 -274.5 96.5t-99.5 294.5zM295 375 q0 -234 246 -234q113 0 200.5 63.5t87.5 141.5v211q-29 17 -94.5 31t-148.5 14q-291 0 -291 -227z" />
<glyph unicode="b" horiz-adv-x="1290" d="M182 0v1618l193 12v-358l-2 -164l4 -2q131 137 348 137q110 0 193.5 -33.5t145.5 -106.5t94 -196t32 -293q0 -334 -124 -485.5t-364 -151.5q-112 0 -204 40t-150 112l-6 -2l-31 -127h-129zM375 289q40 -65 117.5 -107.5t183.5 -42.5q60 0 106 12.5t87 44.5t67.5 84.5 t41.5 135.5t15 194q0 136 -21 227.5t-64 141t-98.5 69t-135.5 19.5q-96 0 -174 -38t-125 -107v-633z" />
<glyph unicode="c" horiz-adv-x="1019" d="M100 618q0 313 127 467t398 154q164 0 299 -59l-13 -174q-120 55 -247 55q-197 0 -280 -102.5t-83 -340.5q0 -251 89 -361t269 -110q146 0 261 70l14 -160q-56 -38 -139 -61t-177 -23q-260 0 -389 156.5t-129 488.5z" />
<glyph unicode="d" horiz-adv-x="1284" d="M100 612q0 315 115 473t356 158q213 0 344 -137l5 2l-5 164v344l195 12v-1628h-149l-25 127l-6 2q-117 -154 -361 -154q-246 0 -357.5 154t-111.5 483zM301 604q0 -259 70.5 -363t251.5 -104q115 0 187.5 44.5t104.5 105.5v637q-39 64 -116 101.5t-174 37.5 q-178 0 -251 -104.5t-73 -354.5z" />
<glyph unicode="e" horiz-adv-x="1183" d="M100 643q0 290 127 444t377 154q226 0 353.5 -139.5t127.5 -423.5q0 -40 -4 -94h-782q7 -237 99 -334.5t292 -97.5q175 0 332 77l22 -163q-169 -91 -376 -91q-298 0 -433 161t-135 507zM295 717h612q-6 356 -301 356q-154 0 -228 -86.5t-83 -269.5z" />
<glyph unicode="f" horiz-adv-x="827" d="M68 1071v150h180v55q0 162 98.5 258t300.5 96q103 0 180 -24l-12 -133q-62 16 -133 16q-240 0 -240 -215v-53h314v-150h-314v-1071h-194v1071h-180z" />
<glyph unicode="g" horiz-adv-x="1173" d="M121 -2q0 136 119 229q-103 60 -103 170q0 60 40 110t112 77l2 4q-146 88 -146 289q0 364 433 364q189 0 301 -76l200 80l43 -98l-147 -103q33 -78 33 -167q0 -180 -100 -270.5t-330 -90.5q-95 0 -170 19q-44 -12 -68.5 -36t-24.5 -55q0 -33 27 -55.5t80 -26.5l297 -24 q214 -18 302.5 -89.5t88.5 -205.5q0 -86 -28 -152t-88.5 -115t-162 -74.5t-241.5 -25.5q-238 0 -353.5 86t-115.5 236zM289 23q0 -193 297 -193q133 0 211.5 24.5t106.5 63t28 98.5q0 46 -19 74t-73.5 47.5t-153.5 28.5l-297 27q-49 -34 -74.5 -79.5t-25.5 -90.5zM338 872 q0 -120 61.5 -166.5t175.5 -46.5q137 0 191.5 51t54.5 162q0 118 -56 166.5t-185 48.5q-131 0 -186.5 -52t-55.5 -163z" />
<glyph unicode="h" horiz-adv-x="1282" d="M182 0v1616l193 12v-354l-2 -164l4 -2q129 135 342 135q199 0 305 -112t106 -322v-809h-192v809q0 254 -276 254q-93 0 -171 -39.5t-116 -99.5v-924h-193z" />
<glyph unicode="i" horiz-adv-x="638" d="M195 1530q0 104 124 104q125 0 125 -104q0 -105 -125 -105q-65 0 -94.5 24t-29.5 81zM221 0v1214l195 11v-1225h-195z" />
<glyph unicode="j" horiz-adv-x="634" d="M-18 -299l10 143q47 -14 86 -14q67 0 105 38.5t38 119.5v1226l193 11v-1243q0 -306 -291 -306q-71 0 -141 25zM188 1534q0 104 127 104q125 0 125 -104q0 -107 -125 -107q-65 0 -96 25t-31 82z" />
<glyph unicode="k" horiz-adv-x="1206" d="M182 0v1616l193 12v-889h186l361 482h227l-418 -557l434 -664h-227l-375 575h-188v-575h-193z" />
<glyph unicode="l" horiz-adv-x="612" d="M209 0v1616l194 12v-1628h-194z" />
<glyph unicode="m" horiz-adv-x="1892" d="M170 0v1217l139 10l35 -131h6q55 67 139 105t177 38q244 0 329 -186h4q52 93 140.5 140.5t203.5 47.5q183 0 290.5 -109t107.5 -319v-813h-193v811q0 126 -66 188t-188 62q-104 0 -172.5 -59.5t-68.5 -170.5v-831h-193v831q0 118 -65.5 175t-173.5 57q-77 0 -148 -38 t-108 -99v-926h-195z" />
<glyph unicode="n" horiz-adv-x="1269" d="M170 0v1217l139 10l33 -129h6q63 69 157 107t197 38q197 0 306.5 -110.5t109.5 -325.5v-807h-192v807q0 132 -69.5 194t-207.5 62q-82 0 -162.5 -37t-121.5 -100v-926h-195z" />
<glyph unicode="o" horiz-adv-x="1259" d="M100 606q0 337 127.5 486t405.5 149t401 -148t123 -487q0 -338 -123.5 -485.5t-400.5 -147.5q-279 0 -406 148t-127 485zM301 606q0 -260 75 -364.5t257 -104.5q178 0 251.5 104.5t73.5 364.5q0 261 -73.5 365t-251.5 104q-182 0 -257 -104.5t-75 -364.5z" />
<glyph unicode="p" horiz-adv-x="1280" d="M170 -303v1517l139 11l41 -127q140 143 363 143q116 0 200 -32t145 -104.5t91.5 -195t30.5 -297.5q0 -327 -124.5 -481t-353.5 -154q-218 0 -331 134l-4 -2l2 -166v-246h-199zM369 293q39 -66 112 -108t174 -42q60 0 107 12.5t89 44.5t69 84t43 134.5t16 193.5 q0 131 -19.5 219.5t-60.5 139t-97 71.5t-136 21q-199 0 -297 -143v-627z" />
<glyph unicode="q" horiz-adv-x="1280" d="M100 608q0 324 121.5 478.5t364.5 154.5q116 0 209 -40t153 -116h6l27 136h125v-1524l-195 -2v244l4 165l-4 2q-124 -124 -331 -124q-480 0 -480 626zM301 608q0 -250 76.5 -353t245.5 -103q121 0 199.5 50t88.5 111v602q-30 62 -110 104t-178 42q-118 0 -186.5 -41 t-102 -140t-33.5 -272z" />
<glyph unicode="r" horiz-adv-x="911" d="M170 0v1212l156 11l16 -262h4q57 133 154 205.5t221 72.5q68 0 121 -16l-13 -197q-49 16 -120 16q-147 0 -245.5 -116t-98.5 -308v-618h-195z" />
<glyph unicode="s" horiz-adv-x="1009" d="M115 78l24 168q67 -51 162 -79t186 -28q128 0 190 55t62 146q0 49 -27 86.5t-70.5 59.5t-99.5 43.5t-115 39t-115 45.5t-99.5 62.5t-70.5 91.5t-27 131q0 159 109.5 250.5t316.5 91.5q177 0 329 -70l-16 -163q-154 65 -317 65q-109 0 -173.5 -44.5t-64.5 -119.5 q0 -41 21 -73t57 -52.5t83 -38t98.5 -33.5t102.5 -34.5t98 -45.5t83 -62.5t57 -89.5t21 -122q0 -179 -106.5 -281t-324.5 -102q-232 0 -374 103z" />
<glyph unicode="t" horiz-adv-x="802" d="M68 1069v152h176l37 303l151 16v-319h301v-152h-301v-750q0 -178 178 -178q60 0 103 17l12 -148q-62 -30 -170 -30q-156 0 -236.5 85t-80.5 248v756h-170z" />
<glyph unicode="u" horiz-adv-x="1251" d="M152 401v820h192v-815q0 -250 283 -250q280 0 280 250v815h193v-820q0 -206 -118.5 -315t-356.5 -109q-236 0 -354.5 110t-118.5 314z" />
<glyph unicode="v" horiz-adv-x="1306" d="M68 1221h215l315 -893l53 -156h6l52 156l315 893h215l-473 -1221h-225z" />
<glyph unicode="w" horiz-adv-x="1785" d="M104 1221h195l203 -904l33 -161h6l34 161l220 904h206l224 -910l37 -161h6l30 161l193 910h190l-295 -1221h-241l-205 858l-35 164h-6l-37 -164l-211 -858h-237z" />
<glyph unicode="x" horiz-adv-x="1232" d="M82 0l397 618l-389 603h229l302 -508l297 508h221l-379 -596l391 -625h-229l-314 526l-307 -526h-219z" />
<glyph unicode="y" horiz-adv-x="1306" d="M68 1221h225l348 -887l57 -154h7l45 158l280 883h209l-448 -1246q-63 -163 -153.5 -233t-221.5 -70q-106 0 -189 39l19 146q67 -33 137 -33q74 0 124.5 35t88.5 121l6 20z" />
<glyph unicode="z" horiz-adv-x="1110" d="M123 0v139l543 779l96 131l-2 4h-615l7 168h833v-142l-541 -776l-96 -129l2 -6h647l-6 -168h-868z" />
<glyph unicode="{" horiz-adv-x="757" d="M193 641v90q70 9 111.5 53.5t41.5 110.5q0 78 -18.5 219.5t-18.5 222.5q0 147 91.5 222t299.5 75h52v-153h-62q-203 0 -203 -168q0 -77 15.5 -204.5t15.5 -209.5q0 -73 -32 -128t-91 -81v-6q59 -27 91 -82.5t32 -126.5q0 -82 -15.5 -210t-15.5 -204q0 -170 203 -170h62 v-153h-52q-208 0 -299.5 75t-91.5 222q0 83 18.5 224t18.5 218q0 66 -41.5 110.5t-111.5 53.5z" />
<glyph unicode="|" horiz-adv-x="575" d="M213 -362v2025h152v-2025h-152z" />
<glyph unicode="}" horiz-adv-x="757" d="M6 -109h62q202 0 202 170q0 76 -15 204t-15 210q0 72 31.5 127t93.5 82v6q-62 26 -93.5 80.5t-31.5 128.5q0 82 15 209.5t15 204.5q0 168 -202 168h-62v153h51q208 0 298.5 -75t90.5 -222q0 -81 -18 -222.5t-18 -219.5q0 -66 42 -110.5t113 -53.5v-90q-71 -9 -113 -53.5 t-42 -110.5q0 -77 18 -218t18 -224q0 -147 -90.5 -222t-298.5 -75h-51v153z" />
<glyph unicode="~" d="M193 1276q17 152 82 227.5t182 75.5q52 0 111.5 -22.5t104.5 -49t99.5 -49t97.5 -22.5q61 0 95.5 30t54.5 88h117q-34 -301 -267 -301q-52 0 -111 22.5t-103.5 49.5t-98 49.5t-94.5 22.5q-114 0 -154 -121h-116z" />
<glyph unicode="&#xa1;" horiz-adv-x="618" d="M182 1253q0 113 125 113q64 0 94.5 -27t30.5 -86q0 -116 -125 -116t-125 116zM207 -274l26 1218h156l25 -1218h-207z" />
<glyph unicode="&#xa2;" horiz-adv-x="1032" d="M106 618q0 295 113 448.5t352 170.5l17 260h155l-18 -264q120 -16 205 -53l-12 -174q-120 55 -248 55q-197 0 -280 -102.5t-83 -340.5q0 -251 89.5 -361t269.5 -110q145 0 260 70l14 -160q-100 -67 -256 -82l-12 -270h-156l14 275q-213 27 -318.5 182t-105.5 456z" />
<glyph unicode="&#xa3;" horiz-adv-x="1308" d="M113 174q97 33 149.5 120t52.5 200q0 89 -18 192h-141l-9 164h107q-51 162 -51 266q0 93 29 169t91.5 138.5t174 97.5t262.5 35q220 0 387 -75l-29 -185q-151 72 -338 72q-188 0 -276 -73.5t-88 -198.5q0 -89 43 -246h545v-164h-506q16 -88 16 -182q0 -112 -40.5 -197 t-113.5 -133l2 -4q172 35 439 35q187 0 424 -25q-1 -3 -5 -95t-6 -97q-280 28 -507 28q-297 0 -584 -26z" />
<glyph unicode="&#xa4;" horiz-adv-x="1189" d="M150 412l129 131q-54 88 -54 196q0 109 60 205l-133 139l102 113l141 -143q91 59 199 59q110 0 199 -61l143 145l104 -113l-141 -141q59 -94 59 -203q0 -107 -51 -192l131 -135l-104 -113l-133 135q-90 -65 -207 -65q-118 0 -209 63l-131 -135zM358 743q0 -95 68.5 -161 t165.5 -66q98 0 165.5 66t67.5 161q0 94 -67.5 161t-165.5 67q-97 0 -165.5 -67t-68.5 -161z" />
<glyph unicode="&#xa5;" horiz-adv-x="1478" d="M127 1536h240l309 -690l65 -152h7l63 152l307 690h234l-441 -838h224v-120h-277v-105h279v-119h-279v-354h-227v354h-279v119h279v105h-279v120h223z" />
<glyph unicode="&#xa6;" horiz-adv-x="575" d="M213 -348v907h152v-907h-152zM213 764v899h152v-899h-152z" />
<glyph unicode="&#xa7;" horiz-adv-x="1150" d="M129 717q0 92 48.5 173t146.5 130q-78 57 -121 118.5t-43 139.5q0 159 116.5 246.5t333.5 87.5q105 0 211 -24.5t180 -69.5l-20 -154q-170 90 -360 90q-127 0 -194 -45t-67 -123q0 -48 39 -90t101.5 -75t138 -67t150.5 -76t137.5 -92t101.5 -123.5t39 -162.5 q0 -94 -49 -175t-148 -130q164 -115 164 -256q0 -159 -115.5 -246.5t-332.5 -87.5q-105 0 -211 24.5t-178 69.5l18 154q164 -90 360 -90q127 0 194 44.5t67 123.5q0 48 -39 90t-101.5 75t-137.5 67t-150.5 76t-138 92t-101.5 123.5t-39 162.5zM317 737q0 -24 6.5 -47.5 t15.5 -43t28 -40.5t34 -35.5t43.5 -34t46.5 -31t54 -31t54 -29t58.5 -29.5t57.5 -29q83 27 124.5 78t41.5 115q0 30 -10.5 58.5t-24 50.5t-43 48t-50 41.5t-64 40.5t-65 36.5t-74 38t-71.5 36.5q-81 -28 -121.5 -79t-40.5 -114z" />
<glyph unicode="&#xa8;" horiz-adv-x="817" d="M154 1534q0 48 23.5 74t68.5 26q94 0 94 -100q0 -50 -22.5 -73t-71.5 -23q-47 0 -69.5 22.5t-22.5 73.5zM481 1534q0 48 25 74t72 26q92 0 92 -100q0 -49 -22.5 -72.5t-69.5 -23.5q-49 0 -73 22.5t-24 73.5z" />
<glyph unicode="&#xa9;" horiz-adv-x="1853" d="M123 776q0 217 108 402t293.5 293t403.5 108q217 0 402 -108t293 -293t108 -402q0 -218 -108 -403.5t-293 -293.5t-402 -108q-218 0 -403.5 108t-293.5 293.5t-108 403.5zM227 778q0 -186 92 -346.5t253.5 -256t353.5 -95.5q144 0 274.5 55.5t224.5 149t149.5 222.5 t55.5 271q0 138 -55.5 265t-149.5 220t-224.5 148t-274.5 55q-192 0 -353 -93.5t-253.5 -251.5t-92.5 -343zM418 776q0 104 36 198t101.5 166.5t166 115t222.5 42.5q93 0 175.5 -27.5t137.5 -70.5l-16 -143q-50 28 -119 45.5t-131 17.5q-177 0 -278 -95.5t-101 -248.5 q0 -157 103.5 -253.5t279.5 -96.5q143 0 269 76q6 -36 20 -140q-66 -51 -156 -86.5t-184 -35.5q-232 0 -379 151.5t-147 384.5z" />
<glyph unicode="&#xaa;" horiz-adv-x="860" d="M96 1044q0 129 80 203t225 74q98 0 179 -33v80q0 90 -43 127t-144 37q-124 0 -229 -51l-14 143q129 57 276 57q173 0 246 -79t73 -261v-573h-129l-14 96l-6 2q-83 -112 -236 -112q-123 0 -193.5 72t-70.5 218zM256 1047q0 -150 150 -150q69 0 121.5 40.5t52.5 90.5v141 q-54 27 -146 27q-178 0 -178 -149z" />
<glyph unicode="&#xab;" horiz-adv-x="1280" d="M55 659v17l594 397v-160l-395 -245l395 -246v-160zM502 659v17l594 397v-160l-396 -245l396 -246v-160z" />
<glyph unicode="&#xac;" d="M229 608v178h873v-493h-162v315h-711z" />
<glyph unicode="&#xad;" horiz-adv-x="829" d="M143 625v145h543v-145h-543z" />
<glyph unicode="&#xae;" horiz-adv-x="919" d="M94 1341q0 155 107.5 264t259.5 109q151 0 257.5 -109t106.5 -264q0 -152 -106.5 -260t-257.5 -108q-152 0 -259.5 108t-107.5 260zM154 1343q0 -126 91 -216.5t218 -90.5q124 0 213.5 90.5t89.5 216.5q0 127 -89 216.5t-214 89.5q-128 0 -218.5 -89.5t-90.5 -216.5z M303 1145v411h180q160 0 160 -126q0 -41 -20.5 -72t-57.5 -43l90 -170h-94l-78 160h-94v-160h-86zM389 1366h105q31 0 48 16t17 43q0 58 -74 58h-96v-117z" />
<glyph unicode="&#xaf;" horiz-adv-x="817" d="M123 1450v129h579v-129h-579z" />
<glyph unicode="&#xb0;" horiz-adv-x="720" d="M98 1405q0 111 76 189.5t186 78.5t187.5 -78t77.5 -190q0 -109 -77.5 -188.5t-187.5 -79.5q-108 0 -185 79.5t-77 188.5zM193 1405q0 -68 48 -116t119 -48t119.5 47.5t48.5 116.5q0 70 -48.5 118t-119.5 48q-72 0 -119.5 -48.5t-47.5 -117.5z" />
<glyph unicode="&#xb1;" d="M209 131v152h905v-152h-905zM211 700v172h362v361h175v-361h372v-172h-372v-335h-175v335h-362z" />
<glyph unicode="&#xb2;" horiz-adv-x="722" d="M84 1751q121 86 281 86q139 0 211.5 -63t72.5 -170q0 -48 -19 -95.5t-47.5 -87.5t-80.5 -88.5t-100 -87t-123 -94.5v-6h374l-2 -125h-561v96q33 30 89.5 80t87 77.5t73.5 68.5t66 68.5t46.5 60.5t33.5 62.5t10 57.5q0 53 -39 86t-119 33q-104 0 -217 -78z" />
<glyph unicode="&#xb3;" horiz-adv-x="722" d="M70 1075l34 115q105 -62 232 -62q87 0 130.5 38t43.5 102q0 65 -54 94t-196 29v104q131 0 183.5 29.5t52.5 89.5q0 100 -156 100q-129 0 -229 -74l-37 111q49 38 121 62t149 24q137 0 214 -55.5t77 -157.5q0 -128 -133 -176v-4q151 -39 151 -182q0 -121 -78 -186.5 t-239 -65.5q-150 0 -266 65z" />
<glyph unicode="&#xb4;" horiz-adv-x="817" d="M319 1356l148 293h235l-233 -293h-150z" />
<glyph unicode="&#xb5;" horiz-adv-x="1269" d="M170 -315v1536h195v-811q0 -119 80 -187.5t210 -68.5q121 0 196 59t75 168v840h192v-1217l-137 -12l-29 114h-6q-41 -61 -117 -95t-170 -34q-104 0 -188 43.5t-129 131.5l-4 -2q11 -298 24 -449z" />
<glyph unicode="&#xb6;" horiz-adv-x="1359" d="M92 1280q0 114 80 185t225 71h860l-8 -166h-157v-1681h-170v1681h-365l2 -1681h-172v1317q-134 5 -214.5 76t-80.5 198z" />
<glyph unicode="&#xb7;" horiz-adv-x="579" d="M164 707q0 124 127 124t127 -124q0 -127 -127 -127q-67 0 -97 29.5t-30 97.5z" />
<glyph unicode="&#xb8;" horiz-adv-x="817" d="M258 -391l129 401l131 2l-76 -403h-184z" />
<glyph unicode="&#xb9;" horiz-adv-x="555" d="M90 1663l240 168h92v-811h-150v463l7 162l-7 2l-170 -107z" />
<glyph unicode="&#xba;" horiz-adv-x="933" d="M96 1217q0 249 89 356.5t284 107.5q196 0 282.5 -107t86.5 -357t-87 -356.5t-282 -106.5t-284 107t-89 356zM268 1217q0 -181 45 -249.5t156 -68.5q110 0 155.5 68.5t45.5 249.5q0 182 -45.5 249.5t-155.5 67.5q-75 0 -117.5 -27.5t-63 -96.5t-20.5 -193z" />
<glyph unicode="&#xbb;" horiz-adv-x="1280" d="M152 262v160l395 246l-395 245v160l596 -397v-17zM596 262v160l395 246l-395 245v160l596 -397v-17z" />
<glyph unicode="&#xbc;" horiz-adv-x="1796" d="M250 1372l239 166h93v-809h-150v463l6 162l-6 2l-170 -107zM311 0l1032 1536h144l-1032 -1536h-144zM969 252l383 555h180v-520h96l-4 -121h-92v-166h-139v166h-414zM1139 293l2 -6h256l4 225l6 166l-4 2l-170 -258z" />
<glyph unicode="&#xbd;" horiz-adv-x="1796" d="M250 1372l239 166h93v-809h-150v463l6 162l-6 2l-170 -107zM291 0l1032 1536h143l-1032 -1536h-143zM1079 731q121 86 281 86q139 0 212 -62.5t73 -170.5q0 -48 -19 -95.5t-48 -87.5t-81 -89t-99.5 -87t-123.5 -94v-6h375l-2 -125h-562v98q33 30 89.5 80t87 77.5 t73.5 68.5t66 68.5t46.5 60t33.5 61.5t10 57q0 54 -38.5 86.5t-119.5 32.5q-102 0 -217 -76z" />
<glyph unicode="&#xbe;" horiz-adv-x="1796" d="M133 784l35 115q103 -61 231 -61q87 0 130.5 37.5t43.5 101.5q0 66 -53.5 94.5t-195.5 28.5v104q131 0 183 29t52 90q0 100 -156 100q-131 0 -229 -73l-37 110q49 38 121.5 62t149.5 24q137 0 213.5 -55.5t76.5 -157.5q0 -128 -135 -176v-4q154 -42 154 -182 q0 -121 -78.5 -186.5t-239.5 -65.5q-156 0 -266 65zM309 0l1032 1536h144l-1032 -1536h-144zM948 252l383 555h180v-520h97l-4 -121h-93v-166h-139v166h-414zM1118 293l2 -6h256l4 225l6 166l-4 2l-170 -258z" />
<glyph unicode="&#xbf;" horiz-adv-x="1003" d="M90 160q0 166 94.5 287.5t278.5 220.5l8 272h154l12 -346q-179 -107 -263.5 -198t-84.5 -210q0 -105 68.5 -157t191.5 -52q203 0 360 140l72 -158q-78 -75 -198.5 -120.5t-258.5 -45.5q-215 0 -324.5 95.5t-109.5 271.5zM422 1260q0 114 123 114q65 0 95 -26.5t30 -87.5 q0 -115 -125 -115q-123 0 -123 115z" />
<glyph unicode="&#xc0;" horiz-adv-x="1456" d="M37 0l565 1536h250l567 -1536h-235l-123 367h-676l-123 -367h-225zM438 1876h244l164 -240h-162zM446 549h555l-223 674l-47 159h-6l-51 -159z" />
<glyph unicode="&#xc1;" horiz-adv-x="1456" d="M37 0l565 1536h250l567 -1536h-235l-123 367h-676l-123 -367h-225zM446 549h555l-223 674l-47 159h-6l-51 -159zM600 1632l162 240h264l-266 -240h-160z" />
<glyph unicode="&#xc2;" horiz-adv-x="1456" d="M37 0l565 1536h250l567 -1536h-235l-123 367h-676l-123 -367h-225zM393 1632l230 240h206l238 -240h-184l-156 152l-154 -152h-180zM446 549h555l-223 674l-47 159h-6l-51 -159z" />
<glyph unicode="&#xc3;" horiz-adv-x="1456" d="M37 0l565 1536h250l567 -1536h-235l-123 367h-676l-123 -367h-225zM420 1647q9 98 55.5 157.5t122.5 59.5q40 0 81 -19t69 -42.5t60.5 -42.5t57.5 -19q62 0 82 96l88 -2q-8 -98 -55.5 -157.5t-122.5 -59.5q-50 0 -100 31t-91.5 61.5t-72.5 30.5q-58 0 -82 -96zM446 549 h555l-223 674l-47 159h-6l-51 -159z" />
<glyph unicode="&#xc4;" horiz-adv-x="1456" d="M37 0l565 1536h250l567 -1536h-235l-123 367h-676l-123 -367h-225zM436 1737q0 94 94 94q95 0 95 -94q0 -95 -95 -95q-47 0 -70.5 22t-23.5 73zM446 549h555l-223 674l-47 159h-6l-51 -159zM829 1737q0 46 24.5 70t70.5 24q94 0 94 -94q0 -95 -94 -95q-48 0 -71.5 22 t-23.5 73z" />
<glyph unicode="&#xc5;" horiz-adv-x="1456" d="M37 0l553 1505q-70 40 -70 142q0 78 50.5 124t152.5 46q100 0 152.5 -46t52.5 -122q0 -96 -68 -140l559 -1509h-235l-123 367h-676l-123 -367h-225zM446 549h555l-223 674l-47 159h-6l-51 -159zM627 1642q0 -77 98 -77t98 77q0 78 -98 78t-98 -78z" />
<glyph unicode="&#xc6;" horiz-adv-x="2160" d="M88 0l854 1536h1096l6 -193h-774l47 -456h608v-176h-592l51 -521h682l-6 -190h-868l-35 369h-629l-190 -369h-250zM623 549h516l-64 678l-12 166l-6 2l-74 -150z" />
<glyph unicode="&#xc7;" horiz-adv-x="1241" d="M123 782q0 398 163 589.5t509 191.5q92 0 192.5 -21t165.5 -51l-27 -188q-136 63 -321 63q-166 0 -264.5 -54t-147.5 -182t-49 -348q0 -235 49.5 -370.5t149 -191.5t268.5 -56q174 0 322 74l26 -177q-143 -73 -319 -88l-68 -364h-184l117 366q-299 20 -440.5 216 t-141.5 591z" />
<glyph unicode="&#xc8;" horiz-adv-x="1275" d="M199 0v1536h944l6 -193h-741v-456h634v-176h-634v-521h776l-6 -190h-979zM399 1876h244l164 -240h-162z" />
<glyph unicode="&#xc9;" horiz-adv-x="1275" d="M199 0v1536h944l6 -193h-741v-456h634v-176h-634v-521h776l-6 -190h-979zM563 1632l162 240h264l-266 -240h-160z" />
<glyph unicode="&#xca;" horiz-adv-x="1275" d="M199 0v1536h944l6 -193h-741v-456h634v-176h-634v-521h776l-6 -190h-979zM354 1632l230 240h207l237 -240h-184l-156 152l-153 -152h-181z" />
<glyph unicode="&#xcb;" horiz-adv-x="1275" d="M199 0v1536h944l6 -193h-741v-456h634v-176h-634v-521h776l-6 -190h-979zM397 1737q0 46 24.5 70t70.5 24q94 0 94 -94q0 -95 -94 -95q-48 0 -71.5 22t-23.5 73zM791 1737q0 94 94 94t94 -94q0 -95 -94 -95q-47 0 -70.5 22t-23.5 73z" />
<glyph unicode="&#xcc;" horiz-adv-x="661" d="M43 1876h244l164 -240h-162zM223 0v1536h215v-1536h-215z" />
<glyph unicode="&#xcd;" horiz-adv-x="661" d="M205 1632l162 240h264l-266 -240h-160zM223 0v1536h215v-1536h-215z" />
<glyph unicode="&#xce;" horiz-adv-x="661" d="M-2 1632l229 240h207l238 -240h-185l-155 152l-154 -152h-180zM223 0v1536h215v-1536h-215z" />
<glyph unicode="&#xcf;" horiz-adv-x="661" d="M41 1737q0 94 94 94t94 -94q0 -95 -94 -95q-47 0 -70.5 22t-23.5 73zM223 0v1536h215v-1536h-215zM434 1737q0 94 94 94q95 0 95 -94q0 -95 -95 -95q-47 0 -70.5 22t-23.5 73z" />
<glyph unicode="&#xd0;" horiz-adv-x="1525" d="M68 735v133h145v668h526q350 0 506 -179t156 -583q0 -278 -73.5 -449.5t-216.5 -248t-368 -76.5h-530v735h-145zM422 195h317q94 0 162 15.5t123.5 54t89 104.5t51 166t17.5 239q0 166 -24.5 275t-80.5 173.5t-137 90.5t-203 26h-315v-471h217v-133h-217v-540z" />
<glyph unicode="&#xd1;" horiz-adv-x="1552" d="M199 0v1536h190l778 -1161l4 2l-4 164v995h187v-1536h-150l-725 1057l-90 139l-4 -2l2 -166v-1028h-188zM481 1647q9 98 55.5 157.5t122.5 59.5q40 0 81.5 -19t69.5 -42.5t60.5 -42.5t57.5 -19q62 0 82 96l88 -2q-8 -98 -55.5 -157.5t-122.5 -59.5q-39 0 -79.5 19 t-68.5 42.5t-60 42.5t-57 19q-58 0 -82 -96z" />
<glyph unicode="&#xd2;" horiz-adv-x="1517" d="M123 768q0 422 147.5 607.5t489.5 185.5t488.5 -185t146.5 -608q0 -426 -146 -611.5t-489 -185.5q-340 0 -488.5 187.5t-148.5 609.5zM344 768q0 -177 22 -292t73.5 -184t127.5 -96.5t193 -27.5t193 27.5t127.5 96.5t73.5 184t22 292q0 236 -42 365.5t-129.5 181 t-244.5 51.5q-156 0 -243.5 -51.5t-130 -181t-42.5 -365.5zM506 1876h244l163 -240h-161z" />
<glyph unicode="&#xd3;" horiz-adv-x="1517" d="M123 768q0 422 147.5 607.5t489.5 185.5t488.5 -185t146.5 -608q0 -426 -146 -611.5t-489 -185.5q-340 0 -488.5 187.5t-148.5 609.5zM344 768q0 -177 22 -292t73.5 -184t127.5 -96.5t193 -27.5t193 27.5t127.5 96.5t73.5 184t22 292q0 236 -42 365.5t-129.5 181 t-244.5 51.5q-156 0 -243.5 -51.5t-130 -181t-42.5 -365.5zM635 1632l162 240h264l-266 -240h-160z" />
<glyph unicode="&#xd4;" horiz-adv-x="1517" d="M123 768q0 422 147.5 607.5t489.5 185.5t488.5 -185t146.5 -608q0 -426 -146 -611.5t-489 -185.5q-340 0 -488.5 187.5t-148.5 609.5zM344 768q0 -177 22 -292t73.5 -184t127.5 -96.5t193 -27.5t193 27.5t127.5 96.5t73.5 184t22 292q0 236 -42 365.5t-129.5 181 t-244.5 51.5q-156 0 -243.5 -51.5t-130 -181t-42.5 -365.5zM428 1632l229 240h207l238 -240h-184l-156 152l-154 -152h-180z" />
<glyph unicode="&#xd5;" horiz-adv-x="1517" d="M123 768q0 422 147.5 607.5t489.5 185.5t488.5 -185t146.5 -608q0 -426 -146 -611.5t-489 -185.5q-340 0 -488.5 187.5t-148.5 609.5zM344 768q0 -177 22 -292t73.5 -184t127.5 -96.5t193 -27.5t193 27.5t127.5 96.5t73.5 184t22 292q0 236 -42 365.5t-129.5 181 t-244.5 51.5q-156 0 -243.5 -51.5t-130 -181t-42.5 -365.5zM455 1647q9 98 55.5 157.5t122.5 59.5q40 0 81 -19t69 -42.5t60.5 -42.5t57.5 -19q62 0 82 96l88 -2q-8 -98 -55.5 -157.5t-122.5 -59.5q-50 0 -100 31t-91.5 61.5t-72.5 30.5q-58 0 -82 -96z" />
<glyph unicode="&#xd6;" horiz-adv-x="1517" d="M123 768q0 422 147.5 607.5t489.5 185.5t488.5 -185t146.5 -608q0 -426 -146 -611.5t-489 -185.5q-340 0 -488.5 187.5t-148.5 609.5zM344 768q0 -177 22 -292t73.5 -184t127.5 -96.5t193 -27.5t193 27.5t127.5 96.5t73.5 184t22 292q0 236 -42 365.5t-129.5 181 t-244.5 51.5q-156 0 -243.5 -51.5t-130 -181t-42.5 -365.5zM471 1737q0 94 94 94t94 -94q0 -95 -94 -95q-47 0 -70.5 22t-23.5 73zM864 1737q0 94 94 94q95 0 95 -94q0 -95 -95 -95q-47 0 -70.5 22t-23.5 73z" />
<glyph unicode="&#xd7;" horiz-adv-x="1222" d="M197 387l303 297l-303 299l112 125l305 -299l301 299l113 -125l-303 -299l301 -297l-113 -125l-301 299l-301 -299z" />
<glyph unicode="&#xd8;" horiz-adv-x="1517" d="M102 68l123 159q-102 180 -102 541q0 423 147 608t490 185q310 0 461 -154l127 152l102 -99l-143 -178q88 -180 88 -514q0 -426 -146 -611.5t-489 -185.5q-298 0 -447 140l-108 -142zM342 768q0 -244 41 -371h4l102 127l596 713q-48 70 -126 99.5t-199 29.5 q-117 0 -193 -27t-128 -95.5t-74.5 -183t-22.5 -292.5zM444 283q93 -115 316 -115q117 0 193 27.5t127.5 96.5t73.5 184t22 292q0 212 -31 348l-6 2l-103 -129z" />
<glyph unicode="&#xd9;" horiz-adv-x="1507" d="M168 553v983h209v-981q0 -199 92.5 -292t284.5 -93t283 93t91 292v981h209v-983q0 -582 -583 -582q-586 0 -586 582zM465 1876h244l163 -240h-161z" />
<glyph unicode="&#xda;" horiz-adv-x="1507" d="M168 553v983h209v-981q0 -199 92.5 -292t284.5 -93t283 93t91 292v981h209v-983q0 -582 -583 -582q-586 0 -586 582zM627 1632l161 240h265l-267 -240h-159z" />
<glyph unicode="&#xdb;" horiz-adv-x="1507" d="M168 553v983h209v-981q0 -199 92.5 -292t284.5 -93t283 93t91 292v981h209v-983q0 -582 -583 -582q-586 0 -586 582zM420 1632l229 240h207l238 -240h-185l-155 152l-154 -152h-180z" />
<glyph unicode="&#xdc;" horiz-adv-x="1507" d="M168 553v983h209v-981q0 -199 92.5 -292t284.5 -93t283 93t91 292v981h209v-983q0 -582 -583 -582q-586 0 -586 582zM463 1737q0 94 94 94t94 -94q0 -95 -94 -95q-47 0 -70.5 22t-23.5 73zM856 1737q0 94 94 94t94 -94q0 -95 -94 -95q-47 0 -70.5 22t-23.5 73z" />
<glyph unicode="&#xdd;" horiz-adv-x="1374" d="M43 1536h242l333 -674l72 -149h6l68 149l334 674h231l-532 -1016v-520h-213v520zM565 1632l162 240h264l-266 -240h-160z" />
<glyph unicode="&#xde;" horiz-adv-x="1335" d="M199 0v1536h209v-268h262q306 0 440.5 -114.5t134.5 -367.5q0 -244 -134 -360.5t-441 -116.5h-262v-309h-209zM408 483h262q195 0 277.5 65.5t82.5 237.5q0 166 -82 232.5t-278 66.5h-262v-602z" />
<glyph unicode="&#xdf;" horiz-adv-x="1298" d="M182 0v1030q0 260 123 396.5t354 136.5q162 0 266.5 -84t104.5 -209q0 -58 -27.5 -112t-66.5 -93.5t-78 -74t-66.5 -65t-27.5 -53.5q0 -21 25 -43t64.5 -43.5t87.5 -47.5t96 -60.5t87.5 -76t64.5 -100.5t25 -128q0 -181 -124 -286t-330 -105q-86 0 -174 20t-146 59 l17 172q103 -73 270 -73q132 0 211.5 53t79.5 154q0 70 -47.5 127.5t-115.5 97t-135.5 76t-115 82t-47.5 98.5q0 42 30 85t72.5 80.5t84.5 75.5t72 83.5t30 91.5q0 58 -52 94.5t-139 36.5q-280 0 -280 -346v-1049h-193z" />
<glyph unicode="&#xe0;" horiz-adv-x="1173" d="M113 373q0 175 111.5 272.5t326.5 97.5q148 0 280 -47v121q0 143 -66 201.5t-218 58.5q-186 0 -342 -73l-19 161q177 80 394 80q239 0 340.5 -106.5t101.5 -350.5v-788h-148l-18 150l-6 2q-55 -79 -150.5 -124.5t-212.5 -45.5q-175 0 -274.5 96.5t-99.5 294.5zM295 375 q0 -234 246 -234q113 0 200.5 63.5t87.5 141.5v211q-29 17 -94.5 31t-148.5 14q-291 0 -291 -227zM315 1649h234l141 -293h-151z" />
<glyph unicode="&#xe1;" horiz-adv-x="1173" d="M113 373q0 175 111.5 272.5t326.5 97.5q148 0 280 -47v121q0 143 -66 201.5t-218 58.5q-186 0 -342 -73l-19 161q177 80 394 80q239 0 340.5 -106.5t101.5 -350.5v-788h-148l-18 150l-6 2q-55 -79 -150.5 -124.5t-212.5 -45.5q-175 0 -274.5 96.5t-99.5 294.5zM295 375 q0 -234 246 -234q113 0 200.5 63.5t87.5 141.5v211q-29 17 -94.5 31t-148.5 14q-291 0 -291 -227zM453 1356l147 293h236l-234 -293h-149z" />
<glyph unicode="&#xe2;" horiz-adv-x="1173" d="M113 373q0 175 111.5 272.5t326.5 97.5q148 0 280 -47v121q0 143 -66 201.5t-218 58.5q-186 0 -342 -73l-19 161q177 80 394 80q239 0 340.5 -106.5t101.5 -350.5v-788h-148l-18 150l-6 2q-55 -79 -150.5 -124.5t-212.5 -45.5q-175 0 -274.5 96.5t-99.5 294.5zM281 1356 l211 293h172l215 -293h-152l-147 211l-148 -211h-151zM295 375q0 -234 246 -234q113 0 200.5 63.5t87.5 141.5v211q-29 17 -94.5 31t-148.5 14q-291 0 -291 -227z" />
<glyph unicode="&#xe3;" horiz-adv-x="1173" d="M113 373q0 175 111.5 272.5t326.5 97.5q148 0 280 -47v121q0 143 -66 201.5t-218 58.5q-186 0 -342 -73l-19 161q177 80 394 80q239 0 340.5 -106.5t101.5 -350.5v-788h-148l-18 150l-6 2q-55 -79 -150.5 -124.5t-212.5 -45.5q-175 0 -274.5 96.5t-99.5 294.5zM272 1399 q8 107 56.5 173t122.5 66q42 0 81.5 -21t65 -46.5t57.5 -46.5t60 -21q62 0 86 113l94 -2q-8 -109 -56.5 -174.5t-123.5 -65.5q-41 0 -80 21t-65 46.5t-57.5 46.5t-59.5 21q-29 0 -52 -30.5t-34 -81.5zM295 375q0 -234 246 -234q113 0 200.5 63.5t87.5 141.5v211 q-29 17 -94.5 31t-148.5 14q-291 0 -291 -227z" />
<glyph unicode="&#xe4;" horiz-adv-x="1173" d="M113 373q0 175 111.5 272.5t326.5 97.5q148 0 280 -47v121q0 143 -66 201.5t-218 58.5q-186 0 -342 -73l-19 161q177 80 394 80q239 0 340.5 -106.5t101.5 -350.5v-788h-148l-18 150l-6 2q-55 -79 -150.5 -124.5t-212.5 -45.5q-175 0 -274.5 96.5t-99.5 294.5zM295 375 q0 -234 246 -234q113 0 200.5 63.5t87.5 141.5v211q-29 17 -94.5 31t-148.5 14q-291 0 -291 -227zM332 1534q0 48 23.5 74t68.5 26q94 0 94 -100q0 -50 -22.5 -73t-71.5 -23q-47 0 -69.5 22.5t-22.5 73.5zM659 1534q0 48 25 74t72 26q92 0 92 -100q0 -49 -22.5 -72.5 t-69.5 -23.5q-49 0 -73 22.5t-24 73.5z" />
<glyph unicode="&#xe5;" horiz-adv-x="1173" d="M113 373q0 175 111.5 272.5t326.5 97.5q148 0 280 -47v121q0 143 -66 201.5t-218 58.5q-186 0 -342 -73l-19 161q177 80 394 80q239 0 340.5 -106.5t101.5 -350.5v-788h-148l-18 150l-6 2q-55 -79 -150.5 -124.5t-212.5 -45.5q-175 0 -274.5 96.5t-99.5 294.5zM295 375 q0 -234 246 -234q113 0 200.5 63.5t87.5 141.5v211q-29 17 -94.5 31t-148.5 14q-291 0 -291 -227zM379 1524q0 77 52.5 121.5t154.5 44.5q99 0 154 -46t55 -120q0 -79 -53.5 -121.5t-155.5 -42.5q-99 0 -153 41.5t-54 122.5zM479 1524q0 -39 27 -61.5t82 -22.5 q53 0 81.5 22.5t28.5 61.5q0 38 -28 61t-82 23q-55 0 -82 -22.5t-27 -61.5z" />
<glyph unicode="&#xe6;" horiz-adv-x="1892" d="M113 369q0 175 111.5 271.5t326.5 96.5q155 0 280 -51v127q0 143 -66 201.5t-218 58.5q-184 0 -342 -74l-19 162q180 80 394 80q147 0 235 -42t131 -132q129 174 381 174q215 0 341 -140t126 -423q0 -40 -4 -94h-780q9 -237 100.5 -334.5t290.5 -97.5q171 0 332 79 l22 -165q-169 -91 -379 -91q-343 0 -458 228h-7q-55 -107 -160 -166.5t-245 -59.5q-188 0 -290.5 96t-102.5 296zM293 371q0 -123 67 -178.5t181 -55.5q125 0 206.5 69t81.5 175v172q-29 17 -94.5 31t-148.5 14q-293 0 -293 -227zM1008 717h610q-3 185 -83 270.5t-218 85.5 q-152 0 -226 -86.5t-83 -269.5z" />
<glyph unicode="&#xe7;" horiz-adv-x="1019" d="M100 618q0 313 127 467t398 154q164 0 299 -59l-13 -174q-120 55 -247 55q-197 0 -280 -102.5t-83 -340.5q0 -251 89 -361t269 -110q146 0 261 70l14 -160q-99 -70 -262 -82l-68 -366h-184l119 368q-219 22 -329 179t-110 462z" />
<glyph unicode="&#xe8;" horiz-adv-x="1183" d="M100 643q0 290 127 444t377 154q226 0 353.5 -139.5t127.5 -423.5q0 -40 -4 -94h-782q7 -237 99 -334.5t292 -97.5q175 0 332 77l22 -163q-169 -91 -376 -91q-298 0 -433 161t-135 507zM295 717h612q-6 356 -301 356q-154 0 -228 -86.5t-83 -269.5zM340 1649h233 l142 -293h-152z" />
<glyph unicode="&#xe9;" horiz-adv-x="1183" d="M100 643q0 290 127 444t377 154q226 0 353.5 -139.5t127.5 -423.5q0 -40 -4 -94h-782q7 -237 99 -334.5t292 -97.5q175 0 332 77l22 -163q-169 -91 -376 -91q-298 0 -433 161t-135 507zM295 717h612q-6 356 -301 356q-154 0 -228 -86.5t-83 -269.5zM479 1356l148 293h235 l-233 -293h-150z" />
<glyph unicode="&#xea;" horiz-adv-x="1183" d="M100 643q0 290 127 444t377 154q226 0 353.5 -139.5t127.5 -423.5q0 -40 -4 -94h-782q7 -237 99 -334.5t292 -97.5q175 0 332 77l22 -163q-169 -91 -376 -91q-298 0 -433 161t-135 507zM295 717h612q-6 356 -301 356q-154 0 -228 -86.5t-83 -269.5zM307 1356l211 293h172 l215 -293h-151l-148 211l-147 -211h-152z" />
<glyph unicode="&#xeb;" horiz-adv-x="1183" d="M100 643q0 290 127 444t377 154q226 0 353.5 -139.5t127.5 -423.5q0 -40 -4 -94h-782q7 -237 99 -334.5t292 -97.5q175 0 332 77l22 -163q-169 -91 -376 -91q-298 0 -433 161t-135 507zM295 717h612q-6 356 -301 356q-154 0 -228 -86.5t-83 -269.5zM334 1534 q0 48 23.5 74t68.5 26q94 0 94 -100q0 -50 -22.5 -73t-71.5 -23q-47 0 -69.5 22.5t-22.5 73.5zM662 1534q0 48 24.5 74t71.5 26q92 0 92 -100q0 -49 -22.5 -72.5t-69.5 -23.5q-49 0 -72.5 22.5t-23.5 73.5z" />
<glyph unicode="&#xec;" horiz-adv-x="638" d="M53 1649h234l141 -293h-152zM221 0v1214l195 11v-1225h-195z" />
<glyph unicode="&#xed;" horiz-adv-x="638" d="M193 1356l147 293h235l-233 -293h-149zM221 0v1214l195 11v-1225h-195z" />
<glyph unicode="&#xee;" horiz-adv-x="638" d="M20 1356l211 293h172l215 -293h-151l-148 211l-147 -211h-152zM221 0v1214l195 11v-1225h-195z" />
<glyph unicode="&#xef;" horiz-adv-x="638" d="M70 1534q0 48 23.5 74t68.5 26q94 0 94 -100q0 -50 -22.5 -73t-71.5 -23q-47 0 -69.5 22.5t-22.5 73.5zM221 0v1214l195 11v-1225h-195zM397 1534q0 48 25 74t72 26q92 0 92 -100q0 -49 -22.5 -72.5t-69.5 -23.5q-49 0 -73 22.5t-24 73.5z" />
<glyph unicode="&#xf0;" horiz-adv-x="1261" d="M100 586q0 293 116 432t368 139q185 0 307 -90l4 4q-84 151 -236 287l-180 -131l-73 76l165 124q-108 76 -194 123l129 99q100 -52 192 -127l166 125l74 -86l-156 -113q168 -159 272.5 -360.5t104.5 -407.5q0 -374 -128 -538.5t-402 -164.5q-129 0 -223.5 30.5t-165 99.5 t-105.5 188.5t-35 290.5zM299 580q0 -128 21 -213.5t65 -134t102 -68t142 -19.5q167 0 249.5 118.5t82.5 377.5q0 346 -332 346q-178 0 -254 -92t-76 -315z" />
<glyph unicode="&#xf1;" horiz-adv-x="1269" d="M170 0v1217l139 10l33 -129h6q63 69 157 107t197 38q197 0 306.5 -110.5t109.5 -325.5v-807h-192v807q0 132 -69.5 194t-207.5 62q-82 0 -162.5 -37t-121.5 -100v-926h-195zM336 1399q8 107 56 173t122 66q42 0 81.5 -21t65 -46.5t57.5 -46.5t60 -21q62 0 86 113l94 -2 q-8 -109 -56.5 -174.5t-123.5 -65.5q-41 0 -80 21t-65 46.5t-57.5 46.5t-59.5 21q-29 0 -52 -30.5t-34 -81.5z" />
<glyph unicode="&#xf2;" horiz-adv-x="1259" d="M100 606q0 337 127.5 486t405.5 149t401 -148t123 -487q0 -338 -123.5 -485.5t-400.5 -147.5q-279 0 -406 148t-127 485zM301 606q0 -260 75 -364.5t257 -104.5q178 0 251.5 104.5t73.5 364.5q0 261 -73.5 365t-251.5 104q-182 0 -257 -104.5t-75 -364.5zM367 1649h233 l141 -293h-151z" />
<glyph unicode="&#xf3;" horiz-adv-x="1259" d="M100 606q0 337 127.5 486t405.5 149t401 -148t123 -487q0 -338 -123.5 -485.5t-400.5 -147.5q-279 0 -406 148t-127 485zM301 606q0 -260 75 -364.5t257 -104.5q178 0 251.5 104.5t73.5 364.5q0 261 -73.5 365t-251.5 104q-182 0 -257 -104.5t-75 -364.5zM506 1356 l147 293h236l-234 -293h-149z" />
<glyph unicode="&#xf4;" horiz-adv-x="1259" d="M100 606q0 337 127.5 486t405.5 149t401 -148t123 -487q0 -338 -123.5 -485.5t-400.5 -147.5q-279 0 -406 148t-127 485zM301 606q0 -260 75 -364.5t257 -104.5q178 0 251.5 104.5t73.5 364.5q0 261 -73.5 365t-251.5 104q-182 0 -257 -104.5t-75 -364.5zM334 1356 l211 293h172l215 -293h-152l-147 211l-148 -211h-151z" />
<glyph unicode="&#xf5;" horiz-adv-x="1259" d="M100 606q0 337 127.5 486t405.5 149t401 -148t123 -487q0 -338 -123.5 -485.5t-400.5 -147.5q-279 0 -406 148t-127 485zM301 606q0 -260 75 -364.5t257 -104.5q178 0 251.5 104.5t73.5 364.5q0 261 -73.5 365t-251.5 104q-182 0 -257 -104.5t-75 -364.5zM326 1399 q8 107 56 173t122 66q42 0 81.5 -21t65 -46.5t57.5 -46.5t60 -21q62 0 86 113l94 -2q-8 -109 -56.5 -174.5t-123.5 -65.5q-41 0 -80 21t-65 46.5t-57.5 46.5t-59.5 21q-29 0 -52 -30.5t-34 -81.5z" />
<glyph unicode="&#xf6;" horiz-adv-x="1259" d="M100 606q0 337 127.5 486t405.5 149t401 -148t123 -487q0 -338 -123.5 -485.5t-400.5 -147.5q-279 0 -406 148t-127 485zM301 606q0 -260 75 -364.5t257 -104.5q178 0 251.5 104.5t73.5 364.5q0 261 -73.5 365t-251.5 104q-182 0 -257 -104.5t-75 -364.5zM371 1534 q0 48 23.5 74t68.5 26q94 0 94 -100q0 -50 -22.5 -73t-71.5 -23q-47 0 -69.5 22.5t-22.5 73.5zM698 1534q0 48 25 74t72 26q92 0 92 -100q0 -49 -22.5 -72.5t-69.5 -23.5q-49 0 -73 22.5t-24 73.5z" />
<glyph unicode="&#xf7;" horiz-adv-x="1222" d="M133 602v184h957v-184h-957zM479 354q0 111 131 111t131 -111q0 -110 -131 -110q-67 0 -99 24t-32 86zM479 1032q0 55 34 84t97 29q131 0 131 -113q0 -110 -131 -110q-66 0 -98.5 24.5t-32.5 85.5z" />
<glyph unicode="&#xf8;" horiz-adv-x="1259" d="M82 72l96 121q-78 147 -78 413q0 337 127.5 486t403.5 149q226 0 350 -100l80 102l84 -80l-84 -110q96 -148 96 -447q0 -338 -124 -485.5t-402 -147.5q-255 0 -379 121l-86 -104zM299 606q0 -136 20 -241l5 -3l106 125l442 496q-71 92 -241 92q-180 0 -256 -104.5 t-76 -364.5zM362 258q75 -121 269 -121q178 0 251.5 104.5t73.5 364.5q0 163 -30 283l-6 2l-107 -127z" />
<glyph unicode="&#xf9;" horiz-adv-x="1251" d="M152 401v820h192v-815q0 -250 283 -250q280 0 280 250v815h193v-820q0 -206 -118.5 -315t-356.5 -109q-236 0 -354.5 110t-118.5 314zM365 1649h233l141 -293h-151z" />
<glyph unicode="&#xfa;" horiz-adv-x="1251" d="M152 401v820h192v-815q0 -250 283 -250q280 0 280 250v815h193v-820q0 -206 -118.5 -315t-356.5 -109q-236 0 -354.5 110t-118.5 314zM504 1356l147 293h236l-234 -293h-149z" />
<glyph unicode="&#xfb;" horiz-adv-x="1251" d="M152 401v820h192v-815q0 -250 283 -250q280 0 280 250v815h193v-820q0 -206 -118.5 -315t-356.5 -109q-236 0 -354.5 110t-118.5 314zM330 1356l211 293h172l215 -293h-152l-147 211l-148 -211h-151z" />
<glyph unicode="&#xfc;" horiz-adv-x="1251" d="M152 401v820h192v-815q0 -250 283 -250q280 0 280 250v815h193v-820q0 -206 -118.5 -315t-356.5 -109q-236 0 -354.5 110t-118.5 314zM369 1534q0 48 23.5 74t68.5 26q94 0 94 -100q0 -50 -22.5 -73t-71.5 -23q-47 0 -69.5 22.5t-22.5 73.5zM696 1534q0 48 25 74t72 26 q92 0 92 -100q0 -49 -22.5 -72.5t-69.5 -23.5q-49 0 -73 22.5t-24 73.5z" />
<glyph unicode="&#xfd;" horiz-adv-x="1306" d="M68 1221h225l348 -887l57 -154h7l45 158l280 883h209l-448 -1246q-63 -163 -153.5 -233t-221.5 -70q-106 0 -189 39l19 146q67 -33 137 -33q74 0 124.5 35t88.5 121l6 20zM524 1356l148 293h235l-233 -293h-150z" />
<glyph unicode="&#xfe;" horiz-adv-x="1290" d="M182 -303v1921l197 10v-362l-4 -164l6 -4q137 143 356 143q111 0 192.5 -32t141 -104.5t89.5 -195t30 -297.5q0 -635 -473 -635q-215 0 -336 129l-4 -2l2 -165v-242h-197zM379 293q40 -66 113 -108t174 -42q60 0 106.5 12.5t88 44.5t68.5 84t42.5 134.5t15.5 193.5 q0 131 -19 219.5t-60 139t-96 71.5t-134 21q-196 0 -299 -143v-627z" />
<glyph unicode="&#xff;" horiz-adv-x="1306" d="M68 1221h225l348 -887l57 -154h7l45 158l280 883h209l-448 -1246q-63 -163 -153.5 -233t-221.5 -70q-106 0 -189 39l19 146q67 -33 137 -33q74 0 124.5 35t88.5 121l6 20zM397 1534q0 48 23.5 74t68.5 26q95 0 95 -100q0 -50 -23 -73t-72 -23q-47 0 -69.5 22.5 t-22.5 73.5zM725 1534q0 48 24.5 74t71.5 26q92 0 92 -100q0 -49 -22.5 -72.5t-69.5 -23.5q-49 0 -72.5 22.5t-23.5 73.5z" />
<glyph unicode="&#x152;" horiz-adv-x="2244" d="M123 768q0 420 142.5 606.5t459.5 186.5q329 0 455 -199h6v174h923l7 -193h-740v-456h633v-176h-633v-521h774l-6 -190h-958v186l-6 2q-127 -217 -457 -217q-314 0 -457 188.5t-143 608.5zM344 768q0 -177 22 -292t73.5 -184.5t127.5 -97.5t193 -28q155 0 241.5 53 t127 183t40.5 366q0 143 -14 243.5t-42.5 170.5t-78 109.5t-115 57t-159.5 17.5q-156 0 -243.5 -51.5t-130 -181t-42.5 -365.5z" />
<glyph unicode="&#x153;" horiz-adv-x="2050" d="M115 606q0 336 125.5 485.5t392.5 149.5q168 0 275 -54t159 -167h6q107 221 406 221q221 0 348 -140t127 -423q0 -54 -6 -94h-777q6 -237 97.5 -334.5t290.5 -97.5q173 0 331 79l25 -165q-172 -91 -375 -91q-183 0 -294.5 58t-166.5 184h-6q-53 -128 -161 -186t-279 -58 q-269 0 -393.5 148.5t-124.5 484.5zM313 606q0 -259 76.5 -364t257.5 -105q178 0 251 104.5t73 364.5q0 261 -73 365t-253 104t-256 -104.5t-76 -364.5zM1165 717h611q-1 184 -82 270t-219 86q-153 0 -227 -86.5t-83 -269.5z" />
<glyph unicode="&#x178;" horiz-adv-x="1374" d="M43 1536h242l333 -674l72 -149h6l68 149l334 674h231l-532 -1016v-520h-213v520zM401 1737q0 46 24.5 70t70.5 24q94 0 94 -94q0 -95 -94 -95q-48 0 -71.5 22t-23.5 73zM795 1737q0 94 94 94t94 -94q0 -95 -94 -95q-47 0 -70.5 22t-23.5 73z" />
<glyph unicode="&#x2c6;" horiz-adv-x="817" d="M111 1356l211 293h172l215 -293h-152l-147 211l-148 -211h-151z" />
<glyph unicode="&#x2dc;" horiz-adv-x="817" d="M111 1399q8 107 56 173t122 66q42 0 81.5 -21t65 -46.5t57.5 -46.5t60 -21q62 0 86 113l94 -2q-8 -109 -56.5 -174.5t-123.5 -65.5q-41 0 -80 21t-65 46.5t-57.5 46.5t-59.5 21q-29 0 -52 -30.5t-34 -81.5z" />
<glyph unicode="&#x2000;" horiz-adv-x="938" />
<glyph unicode="&#x2001;" horiz-adv-x="1876" />
<glyph unicode="&#x2002;" horiz-adv-x="938" />
<glyph unicode="&#x2003;" horiz-adv-x="1876" />
<glyph unicode="&#x2004;" horiz-adv-x="625" />
<glyph unicode="&#x2005;" horiz-adv-x="469" />
<glyph unicode="&#x2006;" horiz-adv-x="312" />
<glyph unicode="&#x2007;" horiz-adv-x="312" />
<glyph unicode="&#x2008;" horiz-adv-x="234" />
<glyph unicode="&#x2009;" horiz-adv-x="375" />
<glyph unicode="&#x200a;" horiz-adv-x="104" />
<glyph unicode="&#x2010;" horiz-adv-x="829" d="M143 625v145h543v-145h-543z" />
<glyph unicode="&#x2011;" horiz-adv-x="829" d="M143 625v145h543v-145h-543z" />
<glyph unicode="&#x2012;" horiz-adv-x="829" d="M143 625v145h543v-145h-543z" />
<glyph unicode="&#x2013;" horiz-adv-x="1089" d="M143 625v145h803v-145h-803z" />
<glyph unicode="&#x2014;" horiz-adv-x="1449" d="M143 625v145h1164v-145h-1164z" />
<glyph unicode="&#x2018;" horiz-adv-x="477" d="M115 1305q0 58 47 178.5t100 202.5l72 -19l-53 -252q33 -11 57 -43.5t24 -71.5q0 -60 -29 -95.5t-91 -35.5q-127 0 -127 136z" />
<glyph unicode="&#x2019;" horiz-adv-x="477" d="M115 1491q0 60 30 95.5t93 35.5q127 0 127 -135q0 -58 -48.5 -178t-101.5 -203l-70 18l54 252q-35 11 -59.5 43.5t-24.5 71.5z" />
<glyph unicode="&#x201a;" horiz-adv-x="477" d="M115 94q0 60 30 95.5t93 35.5q127 0 127 -135q0 -58 -48.5 -178t-101.5 -203l-70 19l54 252q-35 11 -59.5 43t-24.5 71z" />
<glyph unicode="&#x201c;" horiz-adv-x="854" d="M115 1305q0 58 47 178.5t100 202.5l72 -19l-53 -252q33 -11 57 -43.5t24 -71.5q0 -60 -29 -95.5t-91 -35.5q-127 0 -127 136zM489 1305q1 59 49.5 179t100.5 202l70 -19l-54 -252q35 -11 59.5 -43.5t24.5 -71.5q0 -60 -30 -95.5t-93 -35.5q-64 0 -95.5 36.5t-31.5 99.5z " />
<glyph unicode="&#x201d;" horiz-adv-x="851" d="M115 1489q0 60 30 95.5t93 35.5q127 0 127 -135q0 -58 -48.5 -178t-101.5 -203l-70 18l54 252q-35 11 -59.5 43.5t-24.5 71.5zM489 1489q0 60 30 95.5t93 35.5q127 0 127 -135q0 -58 -48 -178t-101 -203l-70 18l53 252q-35 11 -59.5 43.5t-24.5 71.5z" />
<glyph unicode="&#x201e;" horiz-adv-x="854" d="M115 94q0 60 30 95.5t93 35.5q127 0 127 -135q0 -58 -48.5 -178t-101.5 -203l-70 19l54 252q-35 11 -59.5 43t-24.5 71zM489 94q0 60 30 95.5t93 35.5q127 0 127 -135q0 -58 -48 -178t-101 -203l-70 19l53 252q-35 11 -59.5 43t-24.5 71z" />
<glyph unicode="&#x2022;" horiz-adv-x="831" d="M135 659q0 281 277 281q274 0 274 -281q0 -144 -67.5 -213t-206.5 -69q-277 0 -277 282z" />
<glyph unicode="&#x2026;" horiz-adv-x="1339" d="M131 104q0 125 127 125t127 -125q0 -127 -127 -127q-67 0 -97 29.5t-30 97.5zM553 104q0 125 127 125t127 -125q0 -127 -127 -127q-67 0 -97 29.5t-30 97.5zM954 104q0 125 127 125t127 -125q0 -127 -127 -127q-67 0 -97 29.5t-30 97.5z" />
<glyph unicode="&#x202f;" horiz-adv-x="375" />
<glyph unicode="&#x2039;" horiz-adv-x="829" d="M94 659v17l594 397v-160l-395 -245l395 -246v-160z" />
<glyph unicode="&#x203a;" horiz-adv-x="829" d="M141 262v160l396 246l-396 245v160l596 -397v-17z" />
<glyph unicode="&#x205f;" horiz-adv-x="469" />
<glyph unicode="&#x20ac;" horiz-adv-x="1357" d="M63 588l3 117h167v124h-167l-3 121h179q34 289 194 443.5t434 154.5q226 0 363 -73l-41 -166q-132 57 -285 57q-401 0 -463 -416h629l-29 -121h-612v-124h563l-26 -117h-527q29 -230 141.5 -332t317.5 -102q177 0 342 92l17 -158q-158 -104 -402 -104q-286 0 -435 147 t-181 457h-179z" />
<glyph unicode="&#x2122;" horiz-adv-x="1357" d="M66 1466v109h464v-109h-172v-456h-118v456h-174zM612 1010v565h152l113 -275l59 -153h6l59 153l115 275h144v-565h-105v262l4 166l-6 2l-59 -156l-113 -274h-88l-117 280l-59 156l-4 -2l2 -166v-268h-103z" />
<glyph unicode="&#x25fc;" horiz-adv-x="1218" d="M0 0v1219h1219v-1219h-1219z" />
<hkern u1="x" u2=</font>
</defs>
</svg>
